<svg xmlns="http://www.w3.org/2000/svg" width="20" height="20" viewBox="0 0 20 20">
  <defs>
    <linearGradient id="selected-a" x1="0%" x2="100%" y1="50%" y2="50%">
      <stop offset="0%" stop-color="#FF974C"/>
      <stop offset="100%" stop-color="#FF6B00"/>
    </linearGradient>
  </defs>
  <g fill="none" fill-rule="evenodd">
    <path fill="url(#selected-a)" d="M10,20 C15.5228475,20 20,15.5228475 20,10 C20,4.4771525 15.5228475,0 10,0 C4.4771525,0 0,4.4771525 0,10 C0,15.5228475 4.4771525,20 10,20 Z"/>
    <path fill="#FFF" d="M8.3732982,13.5343048 L14.9817164,6.19491283 C15.1994104,5.95313908 15.5718827,5.93361864 15.8136564,6.15131269 C16.0554302,6.36900675 16.0749506,6.741479 15.8572566,6.98325274 L8.82000425,14.7989132 C8.76185488,14.8634946 8.69266202,14.9122182 8.6178665,14.9447987 C8.38937494,15.0510937 8.10915675,15.0016718 7.93174073,14.8046313 L5.15131269,11.7166531 C4.93361864,11.4748794 4.95313908,11.1024071 5.19491283,10.8847131 C5.43668657,10.667019 5.80915882,10.6865395 6.02685287,10.9283132 L8.3732982,13.5343048 Z"/>
  </g>
</svg>
