<svg xmlns="http://www.w3.org/2000/svg" width="20" height="20" viewBox="0 0 20 20">
  <defs>
    <linearGradient id="selected-a" x1="88.262%" x2="16.882%" y1="86.387%" y2="20.938%">
      <stop offset="0%" stop-color="#FF3A3B"/>
      <stop offset="100%" stop-color="#FE6668"/>
    </linearGradient>
  </defs>
  <g fill="none" fill-rule="evenodd">
    <path fill="url(#selected-a)" d="M10,20 C15.5228475,20 20,15.5228475 20,10 C20,4.4771525 15.5228475,0 10,0 C4.4771525,0 0,4.4771525 0,10 C0,15.5228475 4.4771525,20 10,20 Z"/>
    <path fill="#FFF" d="M15.8136564,6.15131269 C16.0554302,6.36900675 16.0749506,6.741479 15.8572566,6.98325274 L8.82000425,14.7989132 C8.76107761,14.8643579 8.69081026,14.9135179 8.61486416,14.9460965 C8.59914913,14.9533934 8.58303565,14.9599238 8.56672817,14.9657088 C8.56209027,14.965812 8.55775547,14.9671786 8.55340787,14.9684942 C8.33892557,15.0408066 8.09291332,14.9836316 7.93174073,14.8046313 L7.93174073,14.8046313 L5.15131269,11.7166531 C4.93361864,11.4748794 4.95313908,11.1024071 5.19491283,10.8847131 C5.43668657,10.667019 5.80915882,10.6865395 6.02685287,10.9283132 L6.02685287,10.9283132 L8.373,13.534 L14.9817164,6.19491283 C15.1994104,5.95313908 15.5718827,5.93361864 15.8136564,6.15131269 Z"/>
  </g>
</svg>
